<svg width="16" height="16" viewBox="0 0 16 16" fill="none" xmlns="http://www.w3.org/2000/svg">
<path d="M11.773 13.1854C12.1635 13.5759 12.7967 13.5759 13.1872 13.1854C13.5778 12.7949 13.5778 12.1617 13.1872 11.7712L9.41599 7.99995L13.1872 4.22871C13.5778 3.83819 13.5778 3.20502 13.1872 2.8145C12.7967 2.42398 12.1635 2.42398 11.773 2.8145L8.00178 6.58574L4.23054 2.8145C3.84002 2.42398 3.20686 2.42398 2.81633 2.8145C2.42581 3.20502 2.42581 3.83819 2.81633 4.22871L6.58757 7.99995L2.81633 11.7712C2.42581 12.1617 2.42581 12.7949 2.81633 13.1854C3.20686 13.5759 3.84002 13.5759 4.23054 13.1854L8.00178 9.41416L11.773 13.1854Z" fill="#1C1C23" fill-opacity="0.4"/>
</svg>
