<svg width="16" height="16" viewBox="0 0 16 16" fill="none" xmlns="http://www.w3.org/2000/svg">
<path fill-rule="evenodd" clip-rule="evenodd" d="M2 7.99996C2 4.50216 4.83553 1.66663 8.33333 1.66663C11.8311 1.66663 14.6667 4.50216 14.6667 7.99996V8.20984C14.6667 11.5917 11.9251 14.3333 8.54321 14.3333H2V7.99996ZM8.33333 2.99996C5.57191 2.99996 3.33333 5.23854 3.33333 7.99996V13H8.54321C11.1887 13 13.3333 10.8553 13.3333 8.20984V7.99996C13.3333 5.23854 11.0948 2.99996 8.33333 2.99996ZM11.3333 5.99996V7.33329H5.33333V5.99996H11.3333ZM8.33333 10.3333H5.33333V8.99996H8.33333V10.3333Z" fill="#1C1C23" fill-opacity="0.4"/>
</svg>
