<svg width="14" height="16" viewBox="0 0 14 16" fill="none" xmlns="http://www.w3.org/2000/svg">
<mask id="mask0_1133_7734" style="mask-type:luminance" maskUnits="userSpaceOnUse" x="-2" y="-1" width="17" height="17">
<path fill-rule="evenodd" clip-rule="evenodd" d="M-1.18234 -0.0359694H14.8536V16H-1.18234V-0.0359694Z" fill="white"/>
</mask>
<g mask="url(#mask0_1133_7734)">
<path fill-rule="evenodd" clip-rule="evenodd" d="M2.60539 0C1.9144 0 1.25171 0.274496 0.763102 0.763102C0.274496 1.25171 0 1.9144 0 2.60539V13.3946C0 14.0856 0.274496 14.7483 0.763102 15.2369C1.25171 15.7255 1.9144 16 2.60539 16H10.7253C11.0676 16.0005 11.4066 15.9335 11.7229 15.8027C12.0393 15.672 12.3267 15.4801 12.5687 15.2381C12.8108 14.996 13.0027 14.7086 13.1334 14.3923C13.2642 14.0759 13.3312 13.7369 13.3307 13.3946V5.36264C13.3303 5.09963 13.227 4.8472 13.043 4.65934L8.67133 0.291708C8.48607 0.105681 8.23457 0.000767789 7.97203 0H2.60539Z" fill="#8F8472"/>
<path d="M2.32553 10.9888H3.44042V8.08311H3.47508L4.02964 10.3476H5.15031L5.7222 8.08311H5.75686V10.9888H6.8833V6.97977H5.07521L4.63041 8.99004H4.59575L4.20294 6.97977H2.32553V10.9888Z" fill="white"/>
<path fill-rule="evenodd" clip-rule="evenodd" d="M7.64606 10.9888V6.97977H9.18264C10.3842 6.97977 11.1525 7.31481 11.1525 8.98426C11.1525 10.5324 10.3842 10.9888 9.18264 10.9888H7.64606ZM8.79571 7.93871V10.0067H9.11342C9.78351 10.0067 9.95681 9.78723 9.95681 8.98428C9.95681 8.14666 9.76041 7.93871 9.11342 7.93871H8.79571Z" fill="white"/>
<path fill-rule="evenodd" clip-rule="evenodd" d="M13.0411 4.65938L8.6695 0.291743C8.53131 0.153212 8.35436 0.0598571 8.162 0.0240103C8.14676 0.0185264 8.13037 0.0169958 8.11437 0.0195612C8.09836 0.0221267 8.08328 0.0287047 8.07051 0.0386811C8.05774 0.0486574 8.0477 0.0617068 8.04134 0.076611C8.03498 0.0915151 8.0325 0.107788 8.03413 0.12391V2.2378C8.03413 2.63767 8.11289 3.03362 8.26592 3.40305C8.41894 3.77248 8.64323 4.10816 8.92598 4.39091C9.20873 4.67366 9.5444 4.89795 9.91383 5.05097C10.2833 5.20399 10.6792 5.28275 11.0791 5.28275H13.2289C13.2423 5.27991 13.2551 5.27444 13.2663 5.26666C13.2776 5.25889 13.2872 5.24896 13.2947 5.23744C13.3021 5.22593 13.3072 5.21306 13.3096 5.19958C13.312 5.18609 13.3118 5.17226 13.3089 5.15888C13.2691 4.97026 13.1762 4.79695 13.0411 4.65938Z" fill="#1C1C23" fill-opacity="0.1"/>
<path fill-rule="evenodd" clip-rule="evenodd" d="M11.204 4.79115H13.1501C13.1165 4.74527 13.0805 4.70125 13.0422 4.65929L8.67055 0.291654C8.6313 0.250298 8.58699 0.214049 8.53868 0.183762V2.12582C8.53868 2.83271 8.8195 3.51065 9.31934 4.0105C9.81919 4.51034 10.4971 4.79115 11.204 4.79115Z" fill="white" fill-opacity="0.7"/>
</g>
</svg>
