<svg width="16" height="16" viewBox="0 0 16 16" fill="none" xmlns="http://www.w3.org/2000/svg">
<path fill-rule="evenodd" clip-rule="evenodd" d="M14.332 2.00004L9.33221 2.00004L9.33221 3.33337L12.0554 3.33337L6.46786 8.92123L7.41069 9.86401L12.9986 4.2758L12.9985 7.00002L14.3319 7.00006L14.332 2.00004ZM7.3319 3.33333L2.99857 3.33333L2.99857 13.3333L12.9986 13.3333L12.9986 9L14.3319 9L14.3319 13.6667C14.3319 14.219 13.8842 14.6667 13.3319 14.6667L2.66524 14.6667C2.11295 14.6667 1.66524 14.219 1.66524 13.6667L1.66524 3C1.66524 2.44772 2.11295 2 2.66524 2L7.3319 2L7.3319 3.33333Z" fill="#1C1C23" fill-opacity="0.4"/>
</svg>
