<svg width="21" height="21" viewBox="0 0 21 21" fill="none" xmlns="http://www.w3.org/2000/svg">
<path d="M0 10.5C0 4.7012 4.7012 0 10.5 0C16.2988 0 21 4.7012 21 10.5C21 16.2988 16.2988 21 10.5 21C4.7012 21 0 16.2988 0 10.5Z" fill="#1C1C23" fill-opacity="0.6"/>
<path d="M15.1875 8.04258L13.6875 8.90625V7.125C13.6875 6.71133 13.3512 6.375 12.9375 6.375H6C5.58633 6.375 5.25 6.71133 5.25 7.125V13.875C5.25 14.2887 5.58633 14.625 6 14.625H12.9375C13.3512 14.625 13.6875 14.2887 13.6875 13.875V12.0938L15.1875 12.9574C15.4371 13.1016 15.75 12.9211 15.75 12.634V8.36719C15.75 8.07891 15.4371 7.89844 15.1875 8.04258ZM8.34375 8.625C8.34375 8.67656 8.30156 8.71875 8.25 8.71875H6.9375C6.88594 8.71875 6.84375 8.67656 6.84375 8.625V8.0625C6.84375 8.01094 6.88594 7.96875 6.9375 7.96875H8.25C8.30156 7.96875 8.34375 8.01094 8.34375 8.0625V8.625ZM14.9062 11.8242L13.6875 11.1234V9.87773L14.9062 9.17578V11.8242Z" fill="white"/>
</svg>
